<?xml version="1.0" standalone="no"?>
<!DOCTYPE svg PUBLIC "-//W3C//DTD SVG 20010904//EN"
 "http://www.w3.org/TR/2001/REC-SVG-20010904/DTD/svg10.dtd">
<svg version="1.0" xmlns="http://www.w3.org/2000/svg"
 width="68.000000pt" height="46.000000pt" viewBox="0 0 68.000000 46.000000"
 preserveAspectRatio="xMidYMid meet">

<g transform="translate(0.000000,46.000000) scale(0.100000,-0.100000)"
fill="#000000" stroke="none">
<path d="M440 379 c0 -14 -6 -19 -17 -18 -26 4 -73 -10 -73 -21 0 -6 -8 -5
-20 2 -13 9 -27 9 -47 2 -23 -8 -31 -6 -48 13 -18 20 -26 21 -80 15 l-60 -7
-3 -80 c-3 -78 13 -181 30 -191 5 -3 15 -1 21 5 7 5 32 13 56 17 23 4 48 13
56 20 10 11 20 11 44 3 25 -9 36 -8 55 5 26 17 47 18 143 10 54 -5 63 -3 72
14 8 15 4 26 -16 56 l-26 36 26 28 c27 28 27 29 9 45 -10 9 -26 17 -35 17 -11
0 -17 8 -17 25 0 22 -4 25 -35 25 -29 0 -35 -4 -35 -21z"/>
</g>
</svg>
