<svg xmlns="http://www.w3.org/2000/svg" width="849" height="705" viewBox="0 0 849 705" version="1.1"><path d="M 649.122 530.353 C 647.906 531.818, 648.596 533, 650.667 533 C 652.156 533, 652.492 530.422, 651.113 529.570 C 650.626 529.269, 649.730 529.621, 649.122 530.353 M 630.446 535.087 C 629.416 536.755, 631.733 538.667, 633.113 537.287 C 634.267 536.133, 633.545 534, 632 534 C 631.515 534, 630.816 534.489, 630.446 535.087 M 707.570 535.887 C 707.269 536.374, 707.726 537.358, 708.587 538.072 C 709.877 539.143, 710.304 539.127, 711.010 537.983 C 711.482 537.220, 711.646 536.237, 711.375 535.798 C 710.712 534.726, 708.252 534.783, 707.570 535.887 M 612.639 538.694 C 611.444 539.889, 611.994 542, 613.500 542 C 614.325 542, 615 541.352, 615 540.559 C 615 538.888, 613.573 537.761, 612.639 538.694 M 690.047 539.444 C 688.677 541.094, 689.430 543, 691.452 543 C 693.363 543, 694.119 540.343, 692.573 539.061 C 691.612 538.263, 690.943 538.364, 690.047 539.444 M 670.351 544.527 C 669.983 545.488, 670.304 546.578, 671.104 547.085 C 673.086 548.338, 674.500 547.649, 674.500 545.430 C 674.500 543.015, 671.207 542.298, 670.351 544.527 M 652.408 548.378 C 651.599 550.487, 652.735 552, 655.129 552 C 656.639 552, 657.060 551.443, 656.820 549.760 C 656.447 547.146, 653.264 546.149, 652.408 548.378 M 729.984 548.519 C 728.953 549.762, 729.050 550.397, 730.517 552.019 C 732.842 554.587, 733.443 554.517, 734.809 551.519 C 735.768 549.414, 735.651 548.884, 734.036 548.019 C 731.582 546.706, 731.478 546.719, 729.984 548.519 M 635.176 552.224 C 633.509 553.891, 633.719 555.678, 635.670 556.427 C 638.375 557.465, 639.974 554.053, 637.676 552.146 C 636.710 551.344, 636.035 551.365, 635.176 552.224 M 712.153 552.247 C 710.402 553.998, 710.766 555.805, 713.127 557.068 C 715.332 558.248, 716.949 557.081, 716.985 554.285 C 717.009 552.363, 713.513 550.887, 712.153 552.247 M 616.380 557.452 C 615.683 559.267, 616.695 561, 618.452 561 C 620.277 561, 621.096 558.496, 619.722 557.122 C 618.199 555.599, 617.048 555.712, 616.380 557.452 M 693.460 558.125 C 693.037 559.458, 693.292 560.570, 694.143 561.110 C 696.029 562.305, 696.574 562.219, 698 560.500 C 698.993 559.303, 698.993 558.697, 698 557.500 C 696.232 555.370, 694.248 555.643, 693.460 558.125 M 675.200 561.200 C 673.413 562.987, 673.743 564.792, 676.086 566.046 C 678.396 567.282, 678.302 567.322, 679.794 564.447 C 680.656 562.787, 680.493 562.164, 678.943 561.197 C 676.595 559.730, 676.670 559.730, 675.200 561.200 M 656.811 566.515 C 655.833 568.661, 655.878 569.311, 657.057 570.056 C 659.296 571.473, 660.837 571.173, 661.944 569.105 C 662.668 567.752, 662.606 566.938, 661.729 566.261 C 658.697 563.919, 657.977 563.956, 656.811 566.515 M 733.946 566.601 C 732.696 568.936, 732.750 569.344, 734.468 570.601 C 737.200 572.598, 738.523 572.343, 739.783 569.578 C 740.739 567.479, 740.565 566.945, 738.478 565.578 C 735.418 563.573, 735.587 563.535, 733.946 566.601 M 638.175 571.092 C 637.052 572.889, 637.124 573.377, 638.684 574.560 C 641.248 576.503, 641.886 576.344, 643.215 573.428 C 644.163 571.346, 644.111 570.683, 642.943 569.944 C 640.725 568.541, 639.599 568.812, 638.175 571.092 M 716.200 570.200 C 714.283 572.117, 714.805 574.590, 717.373 575.760 C 719.440 576.702, 719.921 576.516, 721.096 574.320 C 722.294 572.081, 722.231 571.642, 720.532 570.399 C 718.197 568.693, 717.729 568.671, 716.200 570.200 M 697.500 575.640 C 695.945 578.013, 695.956 578.250, 697.673 579.551 C 700.103 581.393, 701.024 581.337, 702.608 579.250 C 704.551 576.691, 704.298 575.457, 701.578 574.217 C 699.466 573.255, 698.943 573.437, 697.500 575.640 M 620 575.500 C 619.007 576.697, 619.007 577.303, 620 578.500 C 620.685 579.325, 621.849 580, 622.587 580 C 624.217 580, 626.330 576.342, 625.487 574.979 C 624.575 573.503, 621.408 573.804, 620 575.500 M 678.546 580.238 C 677.083 582.326, 677.129 582.591, 679.239 584.215 C 682.212 586.503, 682.468 586.461, 684.517 583.333 C 686.187 580.785, 686.183 580.607, 684.441 579.333 C 681.852 577.440, 680.343 577.672, 678.546 580.238 M 660.609 584.473 C 659.053 586.848, 659.094 587.015, 661.624 588.673 C 664.177 590.346, 664.316 590.328, 666.129 588.089 C 668.569 585.076, 668.496 584.547, 665.453 583.161 C 662.195 581.676, 662.496 581.594, 660.609 584.473 M 742.550 585.250 C 741.611 588.279, 741.344 592, 742.065 592 C 743.202 592, 746.070 585.922, 745.425 584.879 C 744.631 583.595, 742.997 583.806, 742.550 585.250 M 642.322 588.631 C 640.687 591.127, 640.711 591.275, 643.065 593.090 C 645.460 594.937, 645.529 594.933, 647.250 592.873 C 649.642 590.010, 649.448 588.525, 646.507 587.185 C 644.303 586.181, 643.818 586.348, 642.322 588.631 M 719.630 589.442 C 718.093 591.788, 718.144 591.966, 720.914 593.939 L 723.799 595.993 724.157 591.497 C 724.447 587.848, 724.205 587, 722.872 587 C 721.969 587, 720.510 588.099, 719.630 589.442 M 623.652 593.409 C 622.157 595.689, 622.203 595.903, 624.501 597.409 C 627.805 599.573, 628.481 599.434, 629.913 596.291 C 630.975 593.962, 630.900 593.400, 629.383 592.291 C 626.823 590.419, 625.433 590.690, 623.652 593.409 M 701.100 594.079 C 699.848 595.772, 698.976 597.258, 699.162 597.381 C 701.732 599.085, 705.029 601, 705.392 601 C 705.923 601, 709 595.037, 709 594.007 C 709 593.452, 704.630 591, 703.641 591 C 703.495 591, 702.352 592.385, 701.100 594.079 M 682.270 598.585 C 680.221 601.795, 680.181 602.128, 681.770 602.688 C 682.722 603.024, 684.485 604.183, 685.688 605.265 L 687.876 607.232 689.635 603.366 C 690.603 601.240, 691.551 599.214, 691.743 598.864 C 691.934 598.514, 690.608 597.643, 688.795 596.929 C 686.983 596.215, 685.275 595.509, 685 595.361 C 684.725 595.213, 683.497 596.664, 682.270 598.585 M 664.567 602.506 C 663.528 604.434, 662.863 606.123, 663.089 606.259 C 663.315 606.395, 664.923 607.502, 666.663 608.719 L 669.825 610.931 671.778 606.985 L 673.730 603.038 670.308 601.019 C 668.426 599.909, 666.789 599, 666.670 599 C 666.552 599, 665.605 600.578, 664.567 602.506 M 743 600.364 C 743 601.114, 741.807 602.920, 740.348 604.379 C 738.890 605.837, 737.878 607.179, 738.098 607.361 C 739.570 608.574, 744.981 610.686, 745.440 610.227 C 745.748 609.919, 746 607.267, 746 604.333 C 746 600.259, 745.646 599, 744.500 599 C 743.675 599, 743 599.614, 743 600.364 M 646.615 606.465 C 644.483 609.719, 644.569 610.022, 648.572 613.348 C 651.248 615.572, 652 615.839, 652 614.563 C 652 613.665, 652.736 611.806, 653.635 610.434 C 654.535 609.061, 655.097 607.815, 654.885 607.666 C 653.179 606.464, 648.988 604, 648.650 604 C 648.419 604, 647.503 605.109, 646.615 606.465 M 705.568 609.869 C 702.589 615.630, 696.228 616.745, 691.077 612.411 C 688.052 609.866, 688 609.859, 688 611.988 C 688 614.769, 682.794 620, 680.027 620 C 677.037 620, 672.374 617.410, 671.542 615.287 C 670.982 613.858, 670.582 614.249, 669.542 617.242 C 668.826 619.300, 667.203 621.825, 665.933 622.853 L 663.626 624.721 667.330 625.944 C 674.112 628.182, 675.682 635.745, 670.253 640.016 C 666.910 642.645, 663.717 642.521, 660.356 639.630 C 656.782 636.555, 656.567 631.155, 659.877 627.630 L 662.155 625.206 658.570 624.023 C 656.598 623.372, 654.492 621.919, 653.889 620.793 C 652.870 618.889, 652.663 619.036, 650.939 622.888 C 649.919 625.166, 648.390 627.297, 647.542 627.622 C 645.399 628.445, 645.610 630, 647.865 630 C 648.891 630, 650.916 630.933, 652.365 632.073 C 655.885 634.841, 656.044 640.671, 652.686 643.826 C 645.125 650.929, 634.166 639.743, 641.500 632.409 C 644.467 629.443, 644.564 629.001, 642.250 628.996 C 641.288 628.994, 639.024 628.093, 637.220 626.993 C 634.143 625.117, 633.902 625.102, 633.321 626.746 C 631.895 630.787, 628.743 633, 624.415 633 C 620.911 633, 619.730 632.467, 617.589 629.923 C 614.622 626.397, 614.361 623.750, 616.562 619.528 C 617.988 616.793, 617.972 616.453, 616.365 615.278 C 615.404 614.575, 614.281 614, 613.868 614 C 613.456 614, 613.162 619.728, 613.215 626.728 C 613.306 638.833, 613.426 639.547, 615.655 641.301 C 618.722 643.713, 618.912 649.865, 616 652.500 C 613.039 655.180, 613.502 657.439, 617.239 658.543 C 623.244 660.317, 623.564 669.005, 617.727 671.802 C 615.886 672.684, 615 673.884, 615 675.492 C 615 677.641, 615.332 677.820, 618.387 677.325 C 620.986 676.903, 622.267 677.267, 623.887 678.887 C 628.539 683.539, 624.792 690.715, 618.264 689.655 L 614.752 689.086 615.365 692.793 C 615.702 694.832, 615.983 698.413, 615.989 700.750 C 615.995 703.087, 616.450 705, 617 705 C 617.550 705, 618 703.845, 618 702.434 C 618 698.071, 619.732 696, 623.380 696 C 627.537 696, 630.436 698.937, 629.762 702.465 L 629.277 705 654.016 705 C 674.786 705, 678.955 704.759, 680 703.500 C 680.685 702.675, 682.058 702, 683.051 702 C 684.044 702, 685.532 702.675, 686.357 703.500 C 687.247 704.390, 689.691 705, 692.365 705 C 696.686 705, 696.886 704.870, 697.187 701.858 C 697.774 695.968, 706 696.071, 706 701.968 L 706 705 723.500 705 L 741 705 741 701.632 C 741 698.428, 740.794 698.236, 736.772 697.696 C 734.446 697.384, 732.383 696.650, 732.188 696.065 C 731.993 695.479, 730.085 695, 727.948 695 C 725 695, 724.194 695.343, 724.608 696.422 C 726.174 700.503, 720.204 704.400, 716.928 701.435 C 713.964 698.753, 714.427 695.043, 717.888 693.736 C 721.555 692.352, 722 689.506, 722 667.458 L 722 651.196 725.149 650.098 C 731.170 647.999, 733.761 648.633, 735.990 652.750 C 737.107 654.813, 738.542 657.233, 739.179 658.128 C 740.067 659.377, 739.988 661.183, 738.841 665.878 C 738.018 669.245, 737.718 672, 738.173 672 C 739.841 672, 738.944 677.741, 737 679.500 C 735.680 680.695, 735 682.580, 735 685.046 C 735 688.553, 735.209 688.806, 738.418 689.180 L 741.836 689.579 742.515 679.540 C 742.889 674.018, 742.936 666.125, 742.621 662 C 741.872 652.207, 741.868 651.314, 742.544 646 C 743.082 641.769, 742.934 641.398, 740.058 639.797 C 737.429 638.332, 737 637.524, 737 634.030 C 737 630.372, 737.348 629.802, 740.500 628.299 C 743.077 627.070, 744 625.991, 744 624.208 C 744 622.294, 743.633 621.937, 742.250 622.506 C 737.256 624.562, 736.132 624.012, 730.211 616.611 C 729.501 615.725, 728.248 615, 727.425 615 C 726.256 615, 726.156 615.423, 726.965 616.934 C 728.639 620.062, 728.167 622.924, 725.545 625.545 C 720.650 630.441, 713 627.145, 713 620.140 C 713 615.733, 716.985 611.707, 720.479 612.584 C 722.584 613.112, 723 612.865, 723 611.083 C 723 609.017, 722.900 609, 719.892 610.556 C 716.272 612.428, 712.532 611.815, 709.328 608.825 L 707.156 606.798 705.568 609.869 M 628.026 611.179 C 626.815 612.817, 625.976 614.268, 626.162 614.402 C 629.847 617.076, 633.157 619.140, 633.308 618.859 C 633.413 618.662, 634.253 617.061, 635.173 615.303 L 636.846 612.107 633.536 610.154 L 630.227 608.201 628.026 611.179 M 697.114 618.750 C 691.524 623.391, 694.699 632, 702 632 C 705.009 632, 706.327 631.400, 708.006 629.266 C 711.917 624.293, 708.347 617, 702 617 C 700.472 617, 698.273 617.788, 697.114 618.750 M 680.315 622.007 C 675.400 623.988, 674.409 631.603, 678.635 634.927 C 683.633 638.859, 690.039 636.678, 691.585 630.518 C 692.371 627.384, 689.881 623.286, 686.383 621.955 C 683.453 620.841, 683.203 620.843, 680.315 622.007 M 720 634 C 714.366 639.634, 722.102 648.854, 728.343 643.945 C 733.419 639.952, 730.975 632, 724.671 632 C 723.202 632, 721.100 632.900, 720 634 M 624.027 636.777 C 618.774 641.031, 622.094 650, 628.922 650 C 634.604 650, 638.199 642.389, 634.747 637.668 C 632.745 634.931, 626.906 634.446, 624.027 636.777 M 701.635 637.073 C 699.602 638.671, 699 640.027, 699 643 C 699 645.973, 699.602 647.329, 701.635 648.927 C 703.084 650.067, 705.273 651, 706.500 651 C 707.727 651, 709.916 650.067, 711.365 648.927 C 713.398 647.329, 714 645.973, 714 643 C 714 640.027, 713.398 638.671, 711.365 637.073 C 709.916 635.933, 707.727 635, 706.500 635 C 705.273 635, 703.084 635.933, 701.635 637.073 M 685.357 639.991 C 682.563 641.120, 680 644.840, 680 647.768 C 680 651.268, 684.273 655, 688.280 655 C 694.920 655, 698.460 647.017, 693.961 642.189 C 692.840 640.985, 691.526 640, 691.043 640 C 690.559 640, 689.564 639.803, 688.832 639.563 C 688.099 639.322, 686.536 639.515, 685.357 639.991 M 667.017 646.293 C 660.896 649.372, 662.691 658, 669.452 658 C 673.566 658, 676 655.814, 676 652.120 C 676 646.911, 671.539 644.018, 667.017 646.293 M 650 649.778 C 644.793 651.455, 643.102 658.557, 647.223 661.443 C 652.020 664.803, 658 662.115, 658 656.598 C 658 652.188, 653.755 648.568, 650 649.778 M 628.073 656.635 C 625.351 660.095, 625.456 662.547, 628.455 665.545 C 631.453 668.544, 633.905 668.649, 637.365 665.927 C 639.281 664.421, 640 662.934, 640 660.484 C 640 654.175, 632.030 651.603, 628.073 656.635 M 706.655 656.829 C 703.012 660.854, 705.587 667, 710.916 667 C 716.510 667, 719.220 659.669, 714.777 656.557 C 711.819 654.484, 708.681 654.590, 706.655 656.829 M 688.245 661.250 C 685.806 664.299, 685.853 666.944, 688.392 669.483 C 691.450 672.541, 692.937 672.624, 696.365 669.927 C 699.374 667.561, 699.675 665.409, 697.443 662.223 C 695.694 659.725, 689.951 659.118, 688.245 661.250 M 670 666 C 667.597 668.403, 667.462 670.786, 669.557 673.777 C 672.736 678.316, 680 675.746, 680 670.084 C 680 664.628, 673.874 662.126, 670 666 M 652.168 669.595 C 648.838 671.928, 649.456 677.856, 653.250 679.969 C 655.720 681.344, 656.280 681.344, 658.750 679.969 C 662.544 677.856, 663.162 671.928, 659.832 669.595 C 658.580 668.718, 656.855 668, 656 668 C 655.145 668, 653.420 668.718, 652.168 669.595 M 633.455 674.455 C 630.560 677.349, 630.335 680.010, 632.750 682.802 C 635.462 685.939, 638.324 686.320, 641.343 683.945 C 644.906 681.142, 644.915 676.865, 641.365 674.073 C 637.951 671.387, 636.449 671.460, 633.455 674.455 M 711.200 675.200 C 710.540 675.860, 710 677.795, 710 679.500 C 710 683.322, 711.565 685, 715.129 685 C 720.420 685, 722.974 679.097, 719.171 675.655 C 717.032 673.719, 712.916 673.484, 711.200 675.200 M 693.166 679.596 C 689.931 681.862, 690.512 686.888, 694.250 688.969 C 696.719 690.344, 697.281 690.344, 699.750 688.969 C 703.488 686.888, 704.069 681.862, 700.834 679.596 C 699.580 678.718, 697.855 678, 697 678 C 696.145 678, 694.420 678.718, 693.166 679.596 M 675.571 684.571 C 673.706 686.436, 673.517 690.117, 675.200 691.800 C 675.860 692.460, 677.570 693, 679 693 C 683.880 693, 685.802 687.941, 682.171 684.655 C 679.875 682.577, 677.595 682.548, 675.571 684.571 M 656.655 688.829 C 654.121 691.628, 654.560 695.666, 657.615 697.667 C 659.958 699.202, 660.505 699.227, 662.865 697.909 C 664.540 696.973, 665.618 695.414, 665.825 693.630 C 666.461 688.134, 660.234 684.873, 656.655 688.829 M 638 693 C 635.772 695.228, 635.499 697.195, 637.023 700.043 C 638.655 703.092, 641.633 704.264, 644.250 702.885 C 647.173 701.346, 647.966 700.076, 647.985 696.905 C 648.016 691.618, 641.810 689.190, 638 693" stroke="none" fill="#9f9f9f" fill-rule="evenodd"/><path d="M 617.632 142.500 C 617.983 146.900, 618.714 151.063, 619.257 151.750 C 619.800 152.438, 622.102 152.995, 624.372 152.988 C 626.643 152.981, 636.150 153.645, 645.500 154.463 C 654.850 155.280, 673.750 156.455, 687.500 157.073 C 701.250 157.691, 714.525 158.603, 717 159.099 C 719.475 159.595, 731.175 160.444, 743 160.985 C 761.381 161.827, 764.681 162.217, 765.750 163.676 C 767.440 165.983, 767.343 181.001, 765.493 203.500 C 764.679 213.400, 764.010 221.832, 764.007 222.237 C 764.003 222.642, 762.040 222.022, 759.644 220.858 L 755.289 218.742 753.707 205.267 C 752.837 197.855, 751.869 191.535, 751.556 191.222 C 751.243 190.909, 746.152 191.746, 740.243 193.083 L 729.500 195.512 729.851 216.506 C 730.045 228.053, 730.603 237.923, 731.091 238.440 C 731.580 238.957, 732.637 239.476, 733.441 239.594 C 734.245 239.712, 737.405 240.954, 740.463 242.355 L 746.024 244.901 752.957 241.950 C 762.582 237.855, 763.412 237.966, 762.652 243.250 C 762.316 245.588, 761.579 251.775, 761.015 257 C 760.450 262.225, 759.327 271.900, 758.519 278.500 C 757.711 285.100, 756.786 297.925, 756.464 307 C 756.142 316.075, 755.494 328.675, 755.023 335 C 754.034 348.293, 752.518 395.374, 751.032 459 C 749.035 544.453, 745.918 618.683, 744.209 621.465 C 743.883 621.996, 743.288 637.521, 742.887 655.965 C 742.486 674.409, 741.832 692.987, 741.432 697.250 L 740.707 705 751.126 705 L 761.545 705 761.538 666.750 C 761.533 635.098, 761.783 628.069, 762.986 626 C 764.191 623.926, 764.566 612.931, 765.183 561.500 C 766.725 433.035, 769.511 356.100, 773.692 326.500 C 774.866 318.189, 775.316 304.501, 775.534 270.500 C 775.794 229.932, 777.086 182.762, 778.646 156.898 L 779.226 147.295 775.988 146.648 C 774.207 146.291, 771.119 145.998, 769.125 145.996 C 765.609 145.993, 754.809 144.475, 712 137.967 C 692.083 134.939, 690.441 134.846, 654.247 134.675 L 616.995 134.500 617.632 142.500 M 730.010 272.250 C 730.022 274.716, 723.853 302.360, 721.418 310.758 C 720.579 313.651, 720.123 316.390, 720.405 316.846 C 720.686 317.301, 724.465 317.469, 728.801 317.218 C 733.519 316.945, 737.509 317.202, 738.738 317.860 C 741.894 319.549, 742.529 317.829, 743.860 304 C 744.522 297.125, 745.333 288.954, 745.662 285.843 C 746.259 280.201, 746.252 280.182, 742.880 278.469 C 741.021 277.524, 737.624 275.232, 735.332 273.375 C 730.404 269.385, 729.997 269.299, 730.010 272.250 M 724.729 349.750 C 724.514 350.163, 724.205 358.375, 724.041 368 C 723.877 377.625, 723.689 387.525, 723.622 390 L 723.500 394.500 730.684 394.250 C 734.635 394.113, 739.055 393.549, 740.506 392.998 C 743.013 392.045, 743.114 391.736, 742.545 386.748 C 742.217 383.861, 741.787 375.667, 741.590 368.539 C 741.318 358.683, 740.905 355.480, 739.866 355.171 C 739.115 354.947, 735.899 353.467, 732.720 351.882 C 726.659 348.860, 725.369 348.516, 724.729 349.750 M 724.059 427.491 C 723.397 428.340, 721.960 449.411, 721.602 463.500 L 721.500 467.499 730.381 467.319 C 735.265 467.220, 739.588 466.770, 739.988 466.319 C 740.960 465.225, 743.399 428.455, 742.588 427.142 C 741.770 425.819, 725.117 426.133, 724.059 427.491 M 736.373 500.027 C 735.809 500.591, 733.065 501.323, 730.277 501.654 C 727.488 501.984, 724.763 502.534, 724.220 502.877 C 723.648 503.238, 723.080 511.689, 722.867 523 C 722.665 533.725, 722.105 542.787, 721.622 543.138 C 721.139 543.489, 721.071 544.306, 721.471 544.953 C 722.406 546.467, 739.750 546.093, 740.344 544.547 C 740.570 543.957, 740.387 541.231, 739.937 538.487 C 738.870 531.981, 738.818 509.489, 739.860 505 C 741.091 499.694, 739.284 497.116, 736.373 500.027 M 737.894 572.439 C 737.652 572.681, 734.731 572.977, 731.403 573.097 L 725.351 573.316 724.114 593.153 C 723.433 604.064, 723.156 613.443, 723.497 613.996 C 723.839 614.548, 725.104 615.003, 726.309 615.006 C 727.514 615.010, 729.814 615.698, 731.421 616.535 C 733.027 617.373, 734.664 617.708, 735.057 617.279 C 735.894 616.369, 740.631 596.566, 741.584 590 C 741.942 587.525, 742.858 584.503, 743.618 583.285 C 745.652 580.026, 745.311 577.220, 742.545 574.455 C 740.184 572.093, 738.828 571.506, 737.894 572.439 M 724.852 650.128 L 722.204 651.099 721.797 671.799 C 721.563 683.670, 721.785 693.033, 722.317 693.750 C 722.827 694.438, 725.215 695, 727.622 695 C 730.030 695, 732 695.450, 732 696 C 732 697.146, 734.972 697.390, 735.053 696.250 C 735.083 695.837, 735.228 691.675, 735.376 687 C 735.524 682.325, 736.695 674.275, 737.979 669.110 C 739.785 661.845, 740.054 659.356, 739.167 658.110 C 738.537 657.225, 737.107 654.813, 735.990 652.750 C 734.268 649.570, 733.469 649.012, 730.730 649.079 C 728.953 649.122, 726.308 649.595, 724.852 650.128" stroke="none" fill="#040404" fill-rule="evenodd"/><path d="M 619.669 159.250 C 617.928 178.545, 618.357 195.152, 621.033 212 C 622.616 221.967, 623.312 231.911, 623.693 250 C 624.271 277.442, 623.206 294.172, 617.488 347.500 C 607.218 443.266, 605.398 503.027, 610.559 575 C 611.446 587.375, 612.105 600.718, 612.022 604.651 C 611.871 611.862, 612.091 612.409, 616.306 615.312 C 617.976 616.462, 617.995 616.779, 616.562 619.528 C 614.361 623.750, 614.622 626.397, 617.589 629.923 C 622.205 635.409, 630.881 633.657, 633.321 626.746 C 633.902 625.102, 634.143 625.117, 637.220 626.993 C 639.024 628.093, 641.288 628.994, 642.250 628.996 C 644.564 629.001, 644.467 629.443, 641.500 632.409 C 636.376 637.533, 639.977 646, 647.280 646 C 654.470 646, 657.951 636.466, 652.365 632.073 C 650.916 630.933, 648.891 630, 647.865 630 C 645.610 630, 645.399 628.445, 647.542 627.622 C 648.390 627.297, 649.919 625.166, 650.939 622.888 C 652.663 619.036, 652.870 618.889, 653.889 620.793 C 654.492 621.919, 656.598 623.372, 658.570 624.023 L 662.155 625.206 659.877 627.630 C 656.567 631.155, 656.782 636.555, 660.356 639.630 C 663.717 642.521, 666.910 642.645, 670.253 640.016 C 675.682 635.745, 674.112 628.182, 667.330 625.944 L 663.626 624.721 665.933 622.853 C 667.203 621.825, 668.826 619.300, 669.542 617.242 C 670.582 614.249, 670.982 613.858, 671.542 615.287 C 672.374 617.410, 677.037 620, 680.027 620 C 682.794 620, 688 614.769, 688 611.988 C 688 609.859, 688.052 609.866, 691.077 612.411 C 696.228 616.745, 702.589 615.630, 705.568 609.869 L 707.156 606.798 709.328 608.825 C 712.499 611.784, 716.273 612.427, 719.791 610.608 C 722.490 609.212, 722.872 608.415, 723.522 602.807 C 724.236 596.659, 724.199 596.524, 721.164 594.184 C 718.212 591.907, 718.148 591.704, 719.655 589.403 C 720.521 588.081, 722.078 587, 723.115 587 C 724.782 587, 725 586.191, 725 580 L 725 573 731.750 572.960 C 738.305 572.921, 738.420 572.877, 735.750 571.428 C 732.698 569.772, 732.386 568.394, 734.449 565.673 C 735.756 563.948, 735.978 563.939, 738.397 565.525 C 740.507 566.907, 740.777 567.548, 739.922 569.146 C 739.066 570.744, 739.424 571.593, 741.941 573.945 C 745.021 576.822, 746.047 581.235, 743.940 582.537 C 743.259 582.958, 743.457 583.614, 744.496 584.374 C 745.948 585.435, 745.960 585.848, 744.622 588.428 C 743.802 590.008, 742.718 591.571, 742.212 591.900 C 741.706 592.230, 740.628 595.494, 739.815 599.154 C 738.643 604.432, 738.603 605.706, 739.625 605.314 C 740.333 605.042, 741.492 603.510, 742.200 601.910 C 742.909 600.309, 743.992 599, 744.608 599 C 746.364 599, 747.092 591.261, 747.596 567.249 C 747.853 555.011, 748.242 544.436, 748.461 543.749 C 748.880 542.431, 749.282 528.808, 751.002 457.500 C 752.594 391.537, 754.061 346.854, 755.059 334 C 755.550 327.675, 756.381 313.050, 756.905 301.500 C 757.429 289.950, 758.112 279.600, 758.424 278.500 C 758.735 277.400, 759.659 269.750, 760.478 261.500 C 761.296 253.250, 762.257 244.813, 762.613 242.750 C 763.431 238.019, 762.398 237.933, 752.957 241.950 L 746.024 244.901 740.463 242.355 C 737.405 240.954, 734.245 239.712, 733.441 239.594 C 732.637 239.476, 731.587 238.957, 731.106 238.440 C 730.057 237.311, 728.958 196.144, 729.961 195.524 C 730.853 194.973, 748.999 191, 750.624 191 C 752.101 191, 752.573 193.279, 754.068 207.606 L 755.227 218.712 759.492 220.784 L 763.756 222.855 764.399 216.178 C 766.985 189.308, 767.706 166.665, 766.058 164.059 C 764.926 162.271, 755.247 161.121, 740.743 161.051 C 734.827 161.023, 725.602 160.363, 720.243 159.585 C 714.885 158.807, 699.700 157.677, 686.500 157.074 C 673.300 156.470, 654.400 155.295, 644.500 154.461 C 618.061 152.236, 620.342 151.796, 619.669 159.250 M 730.008 272.250 C 730.017 274.691, 723.871 302.175, 721.378 310.838 C 720.534 313.774, 720.140 316.474, 720.505 316.838 C 720.869 317.202, 725.067 317.500, 729.833 317.500 C 734.600 317.500, 739.104 317.725, 739.843 318 C 740.582 318.275, 741.554 317.825, 742.003 317 C 742.700 315.720, 746.020 286.598, 746.005 281.892 C 746.002 281.008, 743.366 278.659, 740.147 276.671 C 736.928 274.684, 733.722 272.370, 733.024 271.529 C 731.214 269.348, 729.999 269.639, 730.008 272.250 M 724.689 349.750 C 724.453 350.163, 724.141 358.375, 723.996 368 C 723.851 377.625, 723.680 387.525, 723.616 390 L 723.500 394.500 731.298 394.259 C 742.324 393.919, 743.230 393.266, 742.494 386.192 C 742.169 383.061, 741.774 374.975, 741.617 368.223 L 741.332 355.946 734.084 352.473 C 726.501 348.839, 725.394 348.518, 724.689 349.750 M 724.180 427.344 C 723.415 428.317, 721.890 449.552, 721.586 463.463 L 721.500 467.427 730.335 467.463 C 735.194 467.483, 739.510 467.050, 739.925 466.500 C 740.598 465.609, 743.042 435.720, 743.012 428.748 L 743 425.995 734.045 426.091 C 728.568 426.150, 724.736 426.636, 724.180 427.344 M 736.342 500.058 C 735.761 500.639, 732.733 501.379, 729.613 501.700 C 726.494 502.022, 723.780 502.559, 723.582 502.893 C 723.384 503.227, 723.060 512.275, 722.861 523 C 722.663 533.725, 722.079 542.803, 721.564 543.174 C 720.488 543.948, 722.820 547.229, 723.950 546.531 C 724.349 546.285, 728.098 546.004, 732.282 545.907 C 736.852 545.801, 740.062 545.280, 740.322 544.603 C 740.560 543.982, 740.387 541.231, 739.937 538.487 C 738.892 532.114, 738.847 510.735, 739.868 505.474 C 740.298 503.260, 740.466 500.897, 740.241 500.224 C 739.740 498.720, 737.765 498.635, 736.342 500.058 M 649.122 530.353 C 647.906 531.818, 648.596 533, 650.667 533 C 652.156 533, 652.492 530.422, 651.113 529.570 C 650.626 529.269, 649.730 529.621, 649.122 530.353 M 630.446 535.087 C 629.416 536.755, 631.733 538.667, 633.113 537.287 C 634.267 536.133, 633.545 534, 632 534 C 631.515 534, 630.816 534.489, 630.446 535.087 M 707.570 535.887 C 707.269 536.374, 707.726 537.358, 708.587 538.072 C 709.877 539.143, 710.304 539.127, 711.010 537.983 C 711.482 537.220, 711.646 536.237, 711.375 535.798 C 710.712 534.726, 708.252 534.783, 707.570 535.887 M 612.639 538.694 C 611.444 539.889, 611.994 542, 613.500 542 C 614.325 542, 615 541.352, 615 540.559 C 615 538.888, 613.573 537.761, 612.639 538.694 M 690.047 539.444 C 688.677 541.094, 689.430 543, 691.452 543 C 693.363 543, 694.119 540.343, 692.573 539.061 C 691.612 538.263, 690.943 538.364, 690.047 539.444 M 670.351 544.527 C 669.983 545.488, 670.304 546.578, 671.104 547.085 C 673.086 548.338, 674.500 547.649, 674.500 545.430 C 674.500 543.015, 671.207 542.298, 670.351 544.527 M 652.408 548.378 C 651.599 550.487, 652.735 552, 655.129 552 C 656.639 552, 657.060 551.443, 656.820 549.760 C 656.447 547.146, 653.264 546.149, 652.408 548.378 M 729.984 548.519 C 728.953 549.762, 729.050 550.397, 730.517 552.019 C 732.842 554.587, 733.443 554.517, 734.809 551.519 C 735.768 549.414, 735.651 548.884, 734.036 548.019 C 731.582 546.706, 731.478 546.719, 729.984 548.519 M 635.176 552.224 C 633.509 553.891, 633.719 555.678, 635.670 556.427 C 638.375 557.465, 639.974 554.053, 637.676 552.146 C 636.710 551.344, 636.035 551.365, 635.176 552.224 M 712.153 552.247 C 710.402 553.998, 710.766 555.805, 713.127 557.068 C 715.332 558.248, 716.949 557.081, 716.985 554.285 C 717.009 552.363, 713.513 550.887, 712.153 552.247 M 616.380 557.452 C 615.683 559.267, 616.695 561, 618.452 561 C 620.277 561, 621.096 558.496, 619.722 557.122 C 618.199 555.599, 617.048 555.712, 616.380 557.452 M 693.460 558.125 C 693.037 559.458, 693.292 560.570, 694.143 561.110 C 696.029 562.305, 696.574 562.219, 698 560.500 C 698.993 559.303, 698.993 558.697, 698 557.500 C 696.232 555.370, 694.248 555.643, 693.460 558.125 M 675.200 561.200 C 673.413 562.987, 673.743 564.792, 676.086 566.046 C 678.396 567.282, 678.302 567.322, 679.794 564.447 C 680.656 562.787, 680.493 562.164, 678.943 561.197 C 676.595 559.730, 676.670 559.730, 675.200 561.200 M 656.811 566.515 C 655.833 568.661, 655.878 569.311, 657.057 570.056 C 659.296 571.473, 660.837 571.173, 661.944 569.105 C 662.668 567.752, 662.606 566.938, 661.729 566.261 C 658.697 563.919, 657.977 563.956, 656.811 566.515 M 638.175 571.092 C 637.052 572.889, 637.124 573.377, 638.684 574.560 C 641.248 576.503, 641.886 576.344, 643.215 573.428 C 644.163 571.346, 644.111 570.683, 642.943 569.944 C 640.725 568.541, 639.599 568.812, 638.175 571.092 M 716.200 570.200 C 714.283 572.117, 714.805 574.590, 717.373 575.760 C 719.440 576.702, 719.921 576.516, 721.096 574.320 C 722.294 572.081, 722.231 571.642, 720.532 570.399 C 718.197 568.693, 717.729 568.671, 716.200 570.200 M 697.500 575.640 C 695.945 578.013, 695.956 578.250, 697.673 579.551 C 700.103 581.393, 701.024 581.337, 702.608 579.250 C 704.551 576.691, 704.298 575.457, 701.578 574.217 C 699.466 573.255, 698.943 573.437, 697.500 575.640 M 620 575.500 C 619.007 576.697, 619.007 577.303, 620 578.500 C 620.685 579.325, 621.849 580, 622.587 580 C 624.217 580, 626.330 576.342, 625.487 574.979 C 624.575 573.503, 621.408 573.804, 620 575.500 M 678.546 580.238 C 677.083 582.326, 677.129 582.591, 679.239 584.215 C 682.212 586.503, 682.468 586.461, 684.517 583.333 C 686.187 580.785, 686.183 580.607, 684.441 579.333 C 681.852 577.440, 680.343 577.672, 678.546 580.238 M 660.609 584.473 C 659.053 586.848, 659.094 587.015, 661.624 588.673 C 664.177 590.346, 664.316 590.328, 666.129 588.089 C 668.569 585.076, 668.496 584.547, 665.453 583.161 C 662.195 581.676, 662.496 581.594, 660.609 584.473 M 642.322 588.631 C 640.687 591.127, 640.711 591.275, 643.065 593.090 C 645.460 594.937, 645.529 594.933, 647.250 592.873 C 649.642 590.010, 649.448 588.525, 646.507 587.185 C 644.303 586.181, 643.818 586.348, 642.322 588.631 M 623.652 593.409 C 622.157 595.689, 622.203 595.903, 624.501 597.409 C 627.805 599.573, 628.481 599.434, 629.913 596.291 C 630.975 593.962, 630.900 593.400, 629.383 592.291 C 626.823 590.419, 625.433 590.690, 623.652 593.409 M 701.100 594.079 C 699.848 595.772, 698.976 597.258, 699.162 597.381 C 701.732 599.085, 705.029 601, 705.392 601 C 705.923 601, 709 595.037, 709 594.007 C 709 593.452, 704.630 591, 703.641 591 C 703.495 591, 702.352 592.385, 701.100 594.079 M 682.270 598.585 C 680.221 601.795, 680.181 602.128, 681.770 602.688 C 682.722 603.024, 684.485 604.183, 685.688 605.265 L 687.876 607.232 689.635 603.366 C 690.603 601.240, 691.551 599.214, 691.743 598.864 C 691.934 598.514, 690.608 597.643, 688.795 596.929 C 686.983 596.215, 685.275 595.509, 685 595.361 C 684.725 595.213, 683.497 596.664, 682.270 598.585 M 664.567 602.506 C 663.528 604.434, 662.863 606.123, 663.089 606.259 C 663.315 606.395, 664.923 607.502, 666.663 608.719 L 669.825 610.931 671.778 606.985 L 673.730 603.038 670.308 601.019 C 668.426 599.909, 666.789 599, 666.670 599 C 666.552 599, 665.605 600.578, 664.567 602.506 M 646.615 606.465 C 644.483 609.719, 644.569 610.022, 648.572 613.348 C 651.248 615.572, 652 615.839, 652 614.563 C 652 613.665, 652.736 611.806, 653.635 610.434 C 654.535 609.061, 655.097 607.815, 654.885 607.666 C 653.179 606.464, 648.988 604, 648.650 604 C 648.419 604, 647.503 605.109, 646.615 606.465 M 628.026 611.179 C 626.815 612.817, 625.976 614.268, 626.162 614.402 C 629.847 617.076, 633.157 619.140, 633.308 618.859 C 633.413 618.662, 634.253 617.061, 635.173 615.303 L 636.846 612.107 633.536 610.154 L 630.227 608.201 628.026 611.179 M 736.906 612.459 C 735.601 617.643, 734.553 618.704, 732.456 616.964 C 730.315 615.187, 730.680 617.323, 733.026 620.306 C 735.758 623.780, 738.302 624.412, 741.950 622.526 C 744.714 621.096, 745 620.494, 745 616.097 C 745 611.112, 744.146 609.749, 740.279 608.564 C 738.301 607.958, 737.932 608.384, 736.906 612.459 M 715.544 614.365 C 710.550 619.359, 713.601 628, 720.360 628 C 723.835 628, 728 623.910, 728 620.498 C 728 618.116, 723.862 613, 721.936 613 C 721.511 613, 720.472 612.735, 719.626 612.410 C 718.719 612.062, 717.045 612.864, 715.544 614.365 M 697.114 618.750 C 691.524 623.391, 694.699 632, 702 632 C 705.009 632, 706.327 631.400, 708.006 629.266 C 711.917 624.293, 708.347 617, 702 617 C 700.472 617, 698.273 617.788, 697.114 618.750 M 680.315 622.007 C 675.400 623.988, 674.409 631.603, 678.635 634.927 C 683.633 638.859, 690.039 636.678, 691.585 630.518 C 692.371 627.384, 689.881 623.286, 686.383 621.955 C 683.453 620.841, 683.203 620.843, 680.315 622.007 M 739.750 628.572 C 737.473 629.807, 737 630.737, 737 633.975 C 737 636.884, 737.570 638.286, 739.223 639.443 C 740.445 640.299, 741.758 641, 742.140 641 C 742.523 641, 742.985 637.849, 743.168 633.998 C 743.351 630.147, 743.275 627.015, 743 627.038 C 742.725 627.061, 741.263 627.751, 739.750 628.572 M 720 634 C 714.366 639.634, 722.102 648.854, 728.343 643.945 C 733.419 639.952, 730.975 632, 724.671 632 C 723.202 632, 721.100 632.900, 720 634 M 624.027 636.777 C 618.774 641.031, 622.094 650, 628.922 650 C 634.604 650, 638.199 642.389, 634.747 637.668 C 632.745 634.931, 626.906 634.446, 624.027 636.777 M 701.635 637.073 C 699.602 638.671, 699 640.027, 699 643 C 699 645.973, 699.602 647.329, 701.635 648.927 C 703.084 650.067, 705.273 651, 706.500 651 C 707.727 651, 709.916 650.067, 711.365 648.927 C 713.398 647.329, 714 645.973, 714 643 C 714 640.027, 713.398 638.671, 711.365 637.073 C 709.916 635.933, 707.727 635, 706.500 635 C 705.273 635, 703.084 635.933, 701.635 637.073 M 685.357 639.991 C 682.563 641.120, 680 644.840, 680 647.768 C 680 651.268, 684.273 655, 688.280 655 C 694.920 655, 698.460 647.017, 693.961 642.189 C 692.840 640.985, 691.526 640, 691.043 640 C 690.559 640, 689.564 639.803, 688.832 639.563 C 688.099 639.322, 686.536 639.515, 685.357 639.991 M 614 647 C 614 654.247, 614.017 654.294, 616 652.500 C 617.312 651.313, 618 649.420, 618 647 C 618 644.580, 617.312 642.687, 616 641.500 C 614.017 639.706, 614 639.753, 614 647 M 667.017 646.293 C 660.896 649.372, 662.691 658, 669.452 658 C 673.566 658, 676 655.814, 676 652.120 C 676 646.911, 671.539 644.018, 667.017 646.293 M 650 649.778 C 644.793 651.455, 643.102 658.557, 647.223 661.443 C 652.020 664.803, 658 662.115, 658 656.598 C 658 652.188, 653.755 648.568, 650 649.778 M 741.506 650.980 C 741.161 652.069, 741.342 653.756, 741.909 654.730 C 742.750 656.174, 742.945 655.810, 742.970 652.750 C 743.003 648.605, 742.466 647.956, 741.506 650.980 M 628.073 656.635 C 625.351 660.095, 625.456 662.547, 628.455 665.545 C 631.453 668.544, 633.905 668.649, 637.365 665.927 C 639.281 664.421, 640 662.934, 640 660.484 C 640 654.175, 632.030 651.603, 628.073 656.635 M 706.655 656.829 C 703.012 660.854, 705.587 667, 710.916 667 C 716.510 667, 719.220 659.669, 714.777 656.557 C 711.819 654.484, 708.681 654.590, 706.655 656.829 M 614.206 665.250 C 614.474 671.857, 614.677 672.473, 616.500 672.193 C 619.365 671.754, 622 668.254, 622 664.889 C 622 661.531, 618.902 658, 615.956 658 C 614.059 658, 613.933 658.519, 614.206 665.250 M 688.245 661.250 C 685.806 664.299, 685.853 666.944, 688.392 669.483 C 691.450 672.541, 692.937 672.624, 696.365 669.927 C 699.374 667.561, 699.675 665.409, 697.443 662.223 C 695.694 659.725, 689.951 659.118, 688.245 661.250 M 670 666 C 667.597 668.403, 667.462 670.786, 669.557 673.777 C 672.736 678.316, 680 675.746, 680 670.084 C 680 664.628, 673.874 662.126, 670 666 M 652.168 669.595 C 648.838 671.928, 649.456 677.856, 653.250 679.969 C 655.720 681.344, 656.280 681.344, 658.750 679.969 C 662.544 677.856, 663.162 671.928, 659.832 669.595 C 658.580 668.718, 656.855 668, 656 668 C 655.145 668, 653.420 668.718, 652.168 669.595 M 633.455 674.455 C 630.560 677.349, 630.335 680.010, 632.750 682.802 C 635.462 685.939, 638.324 686.320, 641.343 683.945 C 644.906 681.142, 644.915 676.865, 641.365 674.073 C 637.951 671.387, 636.449 671.460, 633.455 674.455 M 736.625 675.125 C 735.699 679.753, 735.840 680.377, 737.500 679 C 739.094 677.677, 739.601 672, 738.125 672 C 737.644 672, 736.969 673.406, 736.625 675.125 M 711.200 675.200 C 710.540 675.860, 710 677.795, 710 679.500 C 710 683.322, 711.565 685, 715.129 685 C 720.420 685, 722.974 679.097, 719.171 675.655 C 717.032 673.719, 712.916 673.484, 711.200 675.200 M 616.250 677.662 C 614.299 678.449, 614.587 688.628, 616.582 689.393 C 619.460 690.498, 621.974 690.026, 624 688 C 629.175 682.825, 623.202 674.857, 616.250 677.662 M 693.166 679.596 C 689.931 681.862, 690.512 686.888, 694.250 688.969 C 696.719 690.344, 697.281 690.344, 699.750 688.969 C 703.488 686.888, 704.069 681.862, 700.834 679.596 C 699.580 678.718, 697.855 678, 697 678 C 696.145 678, 694.420 678.718, 693.166 679.596 M 675.571 684.571 C 673.706 686.436, 673.517 690.117, 675.200 691.800 C 675.860 692.460, 677.570 693, 679 693 C 683.880 693, 685.802 687.941, 682.171 684.655 C 679.875 682.577, 677.595 682.548, 675.571 684.571 M 656.655 688.829 C 654.121 691.628, 654.560 695.666, 657.615 697.667 C 659.958 699.202, 660.505 699.227, 662.865 697.909 C 664.540 696.973, 665.618 695.414, 665.825 693.630 C 666.461 688.134, 660.234 684.873, 656.655 688.829 M 735.249 693.500 C 735.313 697.718, 735.488 698, 738.047 698 C 740.378 698, 740.874 697.486, 741.437 694.483 C 742.267 690.059, 741.609 689, 738.031 689 C 735.309 689, 735.184 689.203, 735.249 693.500 M 638 693 C 635.772 695.228, 635.499 697.195, 637.023 700.043 C 638.655 703.092, 641.633 704.264, 644.250 702.885 C 647.173 701.346, 647.966 700.076, 647.985 696.905 C 648.016 691.618, 641.810 689.190, 638 693 M 716.750 694.080 C 714.403 695.447, 714.534 699.268, 717.004 701.504 C 718.633 702.978, 719.459 703.112, 721.417 702.220 C 724.885 700.639, 725.676 697.279, 723.137 694.913 C 720.843 692.776, 719.328 692.579, 716.750 694.080 M 619.035 697.934 C 618.466 698.998, 618 701.046, 618 702.484 C 618 705.037, 618.139 705.093, 623.750 704.800 C 628.908 704.531, 629.534 704.260, 629.830 702.168 C 630.574 696.920, 621.485 693.356, 619.035 697.934 M 699.250 698.098 C 697.596 698.714, 697 699.738, 697 701.968 C 697 704.901, 697.149 705, 701.563 705 C 706.079 705, 706.123 704.967, 705.813 701.858 C 705.457 698.288, 702.811 696.772, 699.250 698.098 M 680 703.500 C 678.928 704.792, 679.327 705, 682.878 705 C 687.022 705, 688.363 703.737, 685.418 702.607 C 682.889 701.636, 681.334 701.893, 680 703.500" stroke="none" fill="#cecece" fill-rule="evenodd"/></svg>