<svg xmlns="http://www.w3.org/2000/svg" width="849" height="705" viewBox="0 0 849 705" version="1.1"><path d="M 194.804 105.529 C 193.888 106.445, 166.529 107.633, 165.933 106.783 C 165.621 106.338, 158.871 106.445, 150.933 107.021 C 142.995 107.597, 131.550 108.255, 125.500 108.484 C 111.096 109.027, 79.496 114.514, 63.712 119.212 L 59.923 120.340 60.502 128.420 C 60.820 132.864, 61.520 147.075, 62.057 160 C 62.962 181.770, 64.340 193.709, 66.296 196.729 C 67.061 197.910, 67.816 206.936, 70.040 241.500 C 71.492 264.074, 75.488 299.710, 79.459 325.500 C 81.322 337.600, 84.046 361, 85.512 377.500 C 86.979 394, 88.868 411.325, 89.711 416 C 90.554 420.675, 91.421 426.750, 91.638 429.500 C 92.781 444.019, 96.148 475.086, 97.002 479 C 98.305 484.965, 99.675 499.623, 101.488 527 C 103.744 561.053, 109.737 615.588, 113.135 633 C 115.922 647.276, 117.685 652, 120.226 652 C 120.730 652, 121.817 652.674, 122.641 653.498 C 123.466 654.323, 125.346 655.248, 126.820 655.554 C 128.294 655.861, 132.977 657.747, 137.227 659.745 C 141.478 661.743, 145.233 663.100, 145.573 662.760 C 146.299 662.035, 145.703 659.335, 139.666 636 C 133.485 612.108, 127.397 581.356, 125.511 564.500 C 124.649 556.800, 122.390 537, 120.490 520.500 C 118.590 504, 116.153 481.275, 115.075 470 C 113.996 458.725, 111.547 441.175, 109.631 431 C 107.716 420.825, 105.857 408.900, 105.500 404.500 C 104.480 391.913, 98.099 341.563, 93.017 306 C 84.961 249.624, 82.850 233.175, 81.530 216.500 C 80.702 206.050, 79.120 190.814, 78.013 182.641 C 75.609 164.896, 75.445 149.482, 77.531 137.381 C 79.443 126.291, 79.895 124.817, 81.149 125.592 C 84.087 127.408, 98.208 127.855, 125 126.979 C 159.740 125.843, 184.121 124.206, 185.450 122.919 C 185.972 122.414, 187.856 122, 189.635 122 C 195.442 122, 197.638 120.512, 199.382 115.391 C 200.272 112.780, 201 109.374, 201 107.822 C 201 105.390, 200.608 105, 198.167 105 C 196.608 105, 195.095 105.238, 194.804 105.529" stroke="none" fill="#040404" fill-rule="evenodd"/><path d="M 190.513 121.743 C 188.320 121.966, 186.070 122.524, 185.513 122.983 C 184.031 124.203, 158.661 125.878, 125 126.979 C 98.208 127.855, 84.087 127.408, 81.149 125.592 C 79.895 124.817, 79.443 126.291, 77.531 137.381 C 75.445 149.482, 75.609 164.896, 78.013 182.641 C 79.120 190.814, 80.702 206.050, 81.530 216.500 C 82.850 233.175, 84.961 249.624, 93.017 306 C 98.099 341.563, 104.480 391.913, 105.500 404.500 C 105.857 408.900, 107.716 420.825, 109.631 431 C 111.547 441.175, 113.996 458.725, 115.075 470 C 116.153 481.275, 118.590 504, 120.490 520.500 C 122.390 537, 124.649 556.800, 125.511 564.500 C 127.406 581.436, 133.513 612.241, 139.685 636 C 142.185 645.625, 144.451 654.710, 144.720 656.190 C 145.615 661.108, 147.972 662.143, 161.716 663.651 C 168.747 664.422, 176.750 665.317, 179.500 665.640 C 182.816 666.028, 189.382 665.358, 199 663.649 C 206.975 662.232, 218.568 660.646, 224.762 660.124 C 237.617 659.042, 242.520 656.920, 247.921 650.099 C 256.916 638.742, 259.239 627.527, 259.330 595 C 259.403 568.977, 258.617 558.169, 253.983 521.500 C 252.385 508.850, 249.459 485, 247.481 468.500 C 245.503 452, 243.028 432.631, 241.981 425.458 C 238.431 401.138, 237.016 387.713, 234.984 359.075 C 232.386 322.460, 227.734 276.129, 224.032 250 C 222.435 238.725, 220.402 222.975, 219.514 215 C 213.985 165.342, 213.153 160.381, 207.407 142.853 C 201.883 126.003, 199.221 120.863, 196.177 121.168 C 195.255 121.261, 192.706 121.519, 190.513 121.743" stroke="none" fill="#bcbcbc" fill-rule="evenodd"/></svg>